<svg xmlns="http://www.w3.org/2000/svg" viewBox="0 0 132 132" role="img" aria-label="QR-code naar cozycompanystudio.nl">
<rect width="132" height="132" fill="#FFFEFB"/>
<g fill="#1C1A17">
<rect x="8" y="8" width="4" height="4"/><rect x="12" y="8" width="4" height="4"/><rect x="16" y="8" width="4" height="4"/><rect x="20" y="8" width="4" height="4"/><rect x="24" y="8" width="4" height="4"/><rect x="28" y="8" width="4" height="4"/><rect x="32" y="8" width="4" height="4"/><rect x="48" y="8" width="4" height="4"/><rect x="56" y="8" width="4" height="4"/><rect x="60" y="8" width="4" height="4"/><rect x="68" y="8" width="4" height="4"/><rect x="80" y="8" width="4" height="4"/><rect x="88" y="8" width="4" height="4"/><rect x="92" y="8" width="4" height="4"/><rect x="96" y="8" width="4" height="4"/><rect x="100" y="8" width="4" height="4"/><rect x="104" y="8" width="4" height="4"/><rect x="108" y="8" width="4" height="4"/><rect x="112" y="8" width="4" height="4"/><rect x="8" y="12" width="4" height="4"/><rect x="32" y="12" width="4" height="4"/><rect x="44" y="12" width="4" height="4"/><rect x="56" y="12" width="4" height="4"/><rect x="60" y="12" width="4" height="4"/><rect x="64" y="12" width="4" height="4"/><rect x="80" y="12" width="4" height="4"/><rect x="88" y="12" width="4" height="4"/><rect x="112" y="12" width="4" height="4"/><rect x="8" y="16" width="4" height="4"/><rect x="16" y="16" width="4" height="4"/><rect x="20" y="16" width="4" height="4"/><rect x="24" y="16" width="4" height="4"/><rect x="32" y="16" width="4" height="4"/><rect x="40" y="16" width="4" height="4"/><rect x="44" y="16" width="4" height="4"/><rect x="48" y="16" width="4" height="4"/><rect x="52" y="16" width="4" height="4"/><rect x="56" y="16" width="4" height="4"/><rect x="64" y="16" width="4" height="4"/><rect x="72" y="16" width="4" height="4"/><rect x="80" y="16" width="4" height="4"/><rect x="88" y="16" width="4" height="4"/><rect x="96" y="16" width="4" height="4"/><rect x="100" y="16" width="4" height="4"/><rect x="104" y="16" width="4" height="4"/><rect x="112" y="16" width="4" height="4"/><rect x="8" y="20" width="4" height="4"/><rect x="16" y="20" width="4" height="4"/><rect x="20" y="20" width="4" height="4"/><rect x="24" y="20" width="4" height="4"/><rect x="32" y="20" width="4" height="4"/><rect x="40" y="20" width="4" height="4"/><rect x="52" y="20" width="4" height="4"/><rect x="56" y="20" width="4" height="4"/><rect x="60" y="20" width="4" height="4"/><rect x="76" y="20" width="4" height="4"/><rect x="88" y="20" width="4" height="4"/><rect x="96" y="20" width="4" height="4"/><rect x="100" y="20" width="4" height="4"/><rect x="104" y="20" width="4" height="4"/><rect x="112" y="20" width="4" height="4"/><rect x="8" y="24" width="4" height="4"/><rect x="16" y="24" width="4" height="4"/><rect x="20" y="24" width="4" height="4"/><rect x="24" y="24" width="4" height="4"/><rect x="32" y="24" width="4" height="4"/><rect x="40" y="24" width="4" height="4"/><rect x="48" y="24" width="4" height="4"/><rect x="52" y="24" width="4" height="4"/><rect x="56" y="24" width="4" height="4"/><rect x="60" y="24" width="4" height="4"/><rect x="64" y="24" width="4" height="4"/><rect x="88" y="24" width="4" height="4"/><rect x="96" y="24" width="4" height="4"/><rect x="100" y="24" width="4" height="4"/><rect x="104" y="24" width="4" height="4"/><rect x="112" y="24" width="4" height="4"/><rect x="8" y="28" width="4" height="4"/><rect x="32" y="28" width="4" height="4"/><rect x="44" y="28" width="4" height="4"/><rect x="48" y="28" width="4" height="4"/><rect x="52" y="28" width="4" height="4"/><rect x="56" y="28" width="4" height="4"/><rect x="64" y="28" width="4" height="4"/><rect x="72" y="28" width="4" height="4"/><rect x="88" y="28" width="4" height="4"/><rect x="112" y="28" width="4" height="4"/><rect x="8" y="32" width="4" height="4"/><rect x="12" y="32" width="4" height="4"/><rect x="16" y="32" width="4" height="4"/><rect x="20" y="32" width="4" height="4"/><rect x="24" y="32" width="4" height="4"/><rect x="28" y="32" width="4" height="4"/><rect x="32" y="32" width="4" height="4"/><rect x="40" y="32" width="4" height="4"/><rect x="48" y="32" width="4" height="4"/><rect x="56" y="32" width="4" height="4"/><rect x="64" y="32" width="4" height="4"/><rect x="72" y="32" width="4" height="4"/><rect x="80" y="32" width="4" height="4"/><rect x="88" y="32" width="4" height="4"/><rect x="92" y="32" width="4" height="4"/><rect x="96" y="32" width="4" height="4"/><rect x="100" y="32" width="4" height="4"/><rect x="104" y="32" width="4" height="4"/><rect x="108" y="32" width="4" height="4"/><rect x="112" y="32" width="4" height="4"/><rect x="44" y="36" width="4" height="4"/><rect x="56" y="36" width="4" height="4"/><rect x="76" y="36" width="4" height="4"/><rect x="8" y="40" width="4" height="4"/><rect x="16" y="40" width="4" height="4"/><rect x="28" y="40" width="4" height="4"/><rect x="36" y="40" width="4" height="4"/><rect x="40" y="40" width="4" height="4"/><rect x="52" y="40" width="4" height="4"/><rect x="64" y="40" width="4" height="4"/><rect x="68" y="40" width="4" height="4"/><rect x="72" y="40" width="4" height="4"/><rect x="76" y="40" width="4" height="4"/><rect x="80" y="40" width="4" height="4"/><rect x="88" y="40" width="4" height="4"/><rect x="92" y="40" width="4" height="4"/><rect x="108" y="40" width="4" height="4"/><rect x="116" y="40" width="4" height="4"/><rect x="12" y="44" width="4" height="4"/><rect x="16" y="44" width="4" height="4"/><rect x="20" y="44" width="4" height="4"/><rect x="32" y="44" width="4" height="4"/><rect x="36" y="44" width="4" height="4"/><rect x="44" y="44" width="4" height="4"/><rect x="48" y="44" width="4" height="4"/><rect x="52" y="44" width="4" height="4"/><rect x="60" y="44" width="4" height="4"/><rect x="68" y="44" width="4" height="4"/><rect x="88" y="44" width="4" height="4"/><rect x="96" y="44" width="4" height="4"/><rect x="100" y="44" width="4" height="4"/><rect x="104" y="44" width="4" height="4"/><rect x="116" y="44" width="4" height="4"/><rect x="8" y="48" width="4" height="4"/><rect x="12" y="48" width="4" height="4"/><rect x="16" y="48" width="4" height="4"/><rect x="20" y="48" width="4" height="4"/><rect x="36" y="48" width="4" height="4"/><rect x="40" y="48" width="4" height="4"/><rect x="44" y="48" width="4" height="4"/><rect x="60" y="48" width="4" height="4"/><rect x="72" y="48" width="4" height="4"/><rect x="80" y="48" width="4" height="4"/><rect x="84" y="48" width="4" height="4"/><rect x="88" y="48" width="4" height="4"/><rect x="100" y="48" width="4" height="4"/><rect x="104" y="48" width="4" height="4"/><rect x="108" y="48" width="4" height="4"/><rect x="112" y="48" width="4" height="4"/><rect x="8" y="52" width="4" height="4"/><rect x="12" y="52" width="4" height="4"/><rect x="16" y="52" width="4" height="4"/><rect x="20" y="52" width="4" height="4"/><rect x="24" y="52" width="4" height="4"/><rect x="32" y="52" width="4" height="4"/><rect x="36" y="52" width="4" height="4"/><rect x="40" y="52" width="4" height="4"/><rect x="52" y="52" width="4" height="4"/><rect x="60" y="52" width="4" height="4"/><rect x="68" y="52" width="4" height="4"/><rect x="76" y="52" width="4" height="4"/><rect x="80" y="52" width="4" height="4"/><rect x="92" y="52" width="4" height="4"/><rect x="96" y="52" width="4" height="4"/><rect x="100" y="52" width="4" height="4"/><rect x="104" y="52" width="4" height="4"/><rect x="112" y="52" width="4" height="4"/><rect x="116" y="52" width="4" height="4"/><rect x="12" y="56" width="4" height="4"/><rect x="16" y="56" width="4" height="4"/><rect x="20" y="56" width="4" height="4"/><rect x="24" y="56" width="4" height="4"/><rect x="28" y="56" width="4" height="4"/><rect x="36" y="56" width="4" height="4"/><rect x="40" y="56" width="4" height="4"/><rect x="48" y="56" width="4" height="4"/><rect x="52" y="56" width="4" height="4"/><rect x="56" y="56" width="4" height="4"/><rect x="60" y="56" width="4" height="4"/><rect x="68" y="56" width="4" height="4"/><rect x="76" y="56" width="4" height="4"/><rect x="84" y="56" width="4" height="4"/><rect x="88" y="56" width="4" height="4"/><rect x="104" y="56" width="4" height="4"/><rect x="112" y="56" width="4" height="4"/><rect x="116" y="56" width="4" height="4"/><rect x="8" y="60" width="4" height="4"/><rect x="12" y="60" width="4" height="4"/><rect x="20" y="60" width="4" height="4"/><rect x="24" y="60" width="4" height="4"/><rect x="32" y="60" width="4" height="4"/><rect x="36" y="60" width="4" height="4"/><rect x="44" y="60" width="4" height="4"/><rect x="48" y="60" width="4" height="4"/><rect x="56" y="60" width="4" height="4"/><rect x="60" y="60" width="4" height="4"/><rect x="64" y="60" width="4" height="4"/><rect x="80" y="60" width="4" height="4"/><rect x="84" y="60" width="4" height="4"/><rect x="100" y="60" width="4" height="4"/><rect x="108" y="60" width="4" height="4"/><rect x="112" y="60" width="4" height="4"/><rect x="116" y="60" width="4" height="4"/><rect x="24" y="64" width="4" height="4"/><rect x="28" y="64" width="4" height="4"/><rect x="32" y="64" width="4" height="4"/><rect x="40" y="64" width="4" height="4"/><rect x="48" y="64" width="4" height="4"/><rect x="52" y="64" width="4" height="4"/><rect x="56" y="64" width="4" height="4"/><rect x="64" y="64" width="4" height="4"/><rect x="68" y="64" width="4" height="4"/><rect x="76" y="64" width="4" height="4"/><rect x="84" y="64" width="4" height="4"/><rect x="92" y="64" width="4" height="4"/><rect x="104" y="64" width="4" height="4"/><rect x="108" y="64" width="4" height="4"/><rect x="116" y="64" width="4" height="4"/><rect x="12" y="68" width="4" height="4"/><rect x="28" y="68" width="4" height="4"/><rect x="36" y="68" width="4" height="4"/><rect x="48" y="68" width="4" height="4"/><rect x="56" y="68" width="4" height="4"/><rect x="64" y="68" width="4" height="4"/><rect x="68" y="68" width="4" height="4"/><rect x="80" y="68" width="4" height="4"/><rect x="88" y="68" width="4" height="4"/><rect x="96" y="68" width="4" height="4"/><rect x="108" y="68" width="4" height="4"/><rect x="112" y="68" width="4" height="4"/><rect x="116" y="68" width="4" height="4"/><rect x="8" y="72" width="4" height="4"/><rect x="16" y="72" width="4" height="4"/><rect x="20" y="72" width="4" height="4"/><rect x="32" y="72" width="4" height="4"/><rect x="36" y="72" width="4" height="4"/><rect x="40" y="72" width="4" height="4"/><rect x="48" y="72" width="4" height="4"/><rect x="56" y="72" width="4" height="4"/><rect x="60" y="72" width="4" height="4"/><rect x="64" y="72" width="4" height="4"/><rect x="72" y="72" width="4" height="4"/><rect x="80" y="72" width="4" height="4"/><rect x="92" y="72" width="4" height="4"/><rect x="96" y="72" width="4" height="4"/><rect x="100" y="72" width="4" height="4"/><rect x="108" y="72" width="4" height="4"/><rect x="112" y="72" width="4" height="4"/><rect x="116" y="72" width="4" height="4"/><rect x="12" y="76" width="4" height="4"/><rect x="24" y="76" width="4" height="4"/><rect x="36" y="76" width="4" height="4"/><rect x="44" y="76" width="4" height="4"/><rect x="52" y="76" width="4" height="4"/><rect x="64" y="76" width="4" height="4"/><rect x="68" y="76" width="4" height="4"/><rect x="76" y="76" width="4" height="4"/><rect x="80" y="76" width="4" height="4"/><rect x="84" y="76" width="4" height="4"/><rect x="92" y="76" width="4" height="4"/><rect x="104" y="76" width="4" height="4"/><rect x="116" y="76" width="4" height="4"/><rect x="8" y="80" width="4" height="4"/><rect x="12" y="80" width="4" height="4"/><rect x="16" y="80" width="4" height="4"/><rect x="24" y="80" width="4" height="4"/><rect x="32" y="80" width="4" height="4"/><rect x="36" y="80" width="4" height="4"/><rect x="40" y="80" width="4" height="4"/><rect x="48" y="80" width="4" height="4"/><rect x="56" y="80" width="4" height="4"/><rect x="64" y="80" width="4" height="4"/><rect x="80" y="80" width="4" height="4"/><rect x="84" y="80" width="4" height="4"/><rect x="88" y="80" width="4" height="4"/><rect x="96" y="80" width="4" height="4"/><rect x="104" y="80" width="4" height="4"/><rect x="108" y="80" width="4" height="4"/><rect x="112" y="80" width="4" height="4"/><rect x="116" y="80" width="4" height="4"/><rect x="40" y="84" width="4" height="4"/><rect x="44" y="84" width="4" height="4"/><rect x="48" y="84" width="4" height="4"/><rect x="60" y="84" width="4" height="4"/><rect x="64" y="84" width="4" height="4"/><rect x="68" y="84" width="4" height="4"/><rect x="72" y="84" width="4" height="4"/><rect x="76" y="84" width="4" height="4"/><rect x="80" y="84" width="4" height="4"/><rect x="84" y="84" width="4" height="4"/><rect x="88" y="84" width="4" height="4"/><rect x="92" y="84" width="4" height="4"/><rect x="104" y="84" width="4" height="4"/><rect x="112" y="84" width="4" height="4"/><rect x="8" y="88" width="4" height="4"/><rect x="12" y="88" width="4" height="4"/><rect x="16" y="88" width="4" height="4"/><rect x="20" y="88" width="4" height="4"/><rect x="24" y="88" width="4" height="4"/><rect x="28" y="88" width="4" height="4"/><rect x="32" y="88" width="4" height="4"/><rect x="40" y="88" width="4" height="4"/><rect x="44" y="88" width="4" height="4"/><rect x="48" y="88" width="4" height="4"/><rect x="56" y="88" width="4" height="4"/><rect x="60" y="88" width="4" height="4"/><rect x="68" y="88" width="4" height="4"/><rect x="80" y="88" width="4" height="4"/><rect x="96" y="88" width="4" height="4"/><rect x="100" y="88" width="4" height="4"/><rect x="104" y="88" width="4" height="4"/><rect x="108" y="88" width="4" height="4"/><rect x="112" y="88" width="4" height="4"/><rect x="116" y="88" width="4" height="4"/><rect x="8" y="92" width="4" height="4"/><rect x="32" y="92" width="4" height="4"/><rect x="40" y="92" width="4" height="4"/><rect x="56" y="92" width="4" height="4"/><rect x="64" y="92" width="4" height="4"/><rect x="72" y="92" width="4" height="4"/><rect x="80" y="92" width="4" height="4"/><rect x="84" y="92" width="4" height="4"/><rect x="88" y="92" width="4" height="4"/><rect x="96" y="92" width="4" height="4"/><rect x="104" y="92" width="4" height="4"/><rect x="116" y="92" width="4" height="4"/><rect x="8" y="96" width="4" height="4"/><rect x="16" y="96" width="4" height="4"/><rect x="20" y="96" width="4" height="4"/><rect x="24" y="96" width="4" height="4"/><rect x="32" y="96" width="4" height="4"/><rect x="40" y="96" width="4" height="4"/><rect x="44" y="96" width="4" height="4"/><rect x="48" y="96" width="4" height="4"/><rect x="52" y="96" width="4" height="4"/><rect x="56" y="96" width="4" height="4"/><rect x="64" y="96" width="4" height="4"/><rect x="68" y="96" width="4" height="4"/><rect x="72" y="96" width="4" height="4"/><rect x="80" y="96" width="4" height="4"/><rect x="88" y="96" width="4" height="4"/><rect x="92" y="96" width="4" height="4"/><rect x="96" y="96" width="4" height="4"/><rect x="104" y="96" width="4" height="4"/><rect x="112" y="96" width="4" height="4"/><rect x="8" y="100" width="4" height="4"/><rect x="16" y="100" width="4" height="4"/><rect x="20" y="100" width="4" height="4"/><rect x="24" y="100" width="4" height="4"/><rect x="32" y="100" width="4" height="4"/><rect x="40" y="100" width="4" height="4"/><rect x="48" y="100" width="4" height="4"/><rect x="56" y="100" width="4" height="4"/><rect x="60" y="100" width="4" height="4"/><rect x="64" y="100" width="4" height="4"/><rect x="72" y="100" width="4" height="4"/><rect x="80" y="100" width="4" height="4"/><rect x="92" y="100" width="4" height="4"/><rect x="108" y="100" width="4" height="4"/><rect x="8" y="104" width="4" height="4"/><rect x="16" y="104" width="4" height="4"/><rect x="20" y="104" width="4" height="4"/><rect x="24" y="104" width="4" height="4"/><rect x="32" y="104" width="4" height="4"/><rect x="40" y="104" width="4" height="4"/><rect x="48" y="104" width="4" height="4"/><rect x="52" y="104" width="4" height="4"/><rect x="56" y="104" width="4" height="4"/><rect x="60" y="104" width="4" height="4"/><rect x="68" y="104" width="4" height="4"/><rect x="80" y="104" width="4" height="4"/><rect x="84" y="104" width="4" height="4"/><rect x="92" y="104" width="4" height="4"/><rect x="96" y="104" width="4" height="4"/><rect x="104" y="104" width="4" height="4"/><rect x="108" y="104" width="4" height="4"/><rect x="112" y="104" width="4" height="4"/><rect x="8" y="108" width="4" height="4"/><rect x="32" y="108" width="4" height="4"/><rect x="40" y="108" width="4" height="4"/><rect x="48" y="108" width="4" height="4"/><rect x="56" y="108" width="4" height="4"/><rect x="64" y="108" width="4" height="4"/><rect x="68" y="108" width="4" height="4"/><rect x="72" y="108" width="4" height="4"/><rect x="80" y="108" width="4" height="4"/><rect x="84" y="108" width="4" height="4"/><rect x="88" y="108" width="4" height="4"/><rect x="92" y="108" width="4" height="4"/><rect x="100" y="108" width="4" height="4"/><rect x="104" y="108" width="4" height="4"/><rect x="8" y="112" width="4" height="4"/><rect x="12" y="112" width="4" height="4"/><rect x="16" y="112" width="4" height="4"/><rect x="20" y="112" width="4" height="4"/><rect x="24" y="112" width="4" height="4"/><rect x="28" y="112" width="4" height="4"/><rect x="32" y="112" width="4" height="4"/><rect x="40" y="112" width="4" height="4"/><rect x="44" y="112" width="4" height="4"/><rect x="48" y="112" width="4" height="4"/><rect x="52" y="112" width="4" height="4"/><rect x="56" y="112" width="4" height="4"/><rect x="64" y="112" width="4" height="4"/><rect x="72" y="112" width="4" height="4"/><rect x="76" y="112" width="4" height="4"/><rect x="84" y="112" width="4" height="4"/><rect x="92" y="112" width="4" height="4"/><rect x="96" y="112" width="4" height="4"/><rect x="104" y="112" width="4" height="4"/><rect x="108" y="112" width="4" height="4"/><rect x="112" y="112" width="4" height="4"/></g>
</svg>